<?xml version="1.0" standalone="no"?>
<!DOCTYPE svg PUBLIC "-//W3C//DTD SVG 20010904//EN"
 "http://www.w3.org/TR/2001/REC-SVG-20010904/DTD/svg10.dtd">
<svg version="1.0" xmlns="http://www.w3.org/2000/svg"
 width="48.000000pt" height="48.000000pt" viewBox="0 0 48.000000 48.000000"
 preserveAspectRatio="xMidYMid meet">
<metadata>
Created by potrace 1.16, written by Peter Selinger 2001-2019
</metadata>
<g transform="translate(0.000000,48.000000) scale(0.100000,-0.100000)"
fill="#000000" stroke="none">
<path d="M72 408 c-17 -17 -17 -319 0 -336 17 -17 319 -17 336 0 17 17 17 319
0 336 -17 17 -319 17 -336 0z m135 -100 l33 -32 35 34 c33 32 36 33 52 17 16
-16 15 -19 -17 -52 l-34 -35 34 -35 c30 -31 32 -37 19 -50 -13 -14 -19 -11
-49 20 l-34 35 -38 -37 c-36 -35 -39 -36 -55 -20 -16 16 -15 19 20 55 l37 38
-35 34 c-26 26 -32 37 -24 47 16 18 19 17 56 -19z"/>
</g>
</svg>
